<svg xmlns="http://www.w3.org/2000/svg" viewBox="0 0 212.06 339.89"><g id="Layer_2" data-name="Layer 2"><g id="Content"><path d="M14,1.47C12.91,1.33,0,.29,0,0V7.51L6.83,8.69C19.88,11,30.42,23.86,30.12,37.11c-.14,5.45,0,10.9,0,16.2V286.58c0,5.3-.14,10.75,0,16.2.3,13.25-10.24,26.06-23.29,28.42L0,332.38v7.51c0-.3,12.91-1.33,14-1.47,7.27-.59,14.54-1.62,21.81-2.65,13.06-1.77,26.12-3.83,39.18-5.89V10C61.88,8,48.82,5.89,35.76,4.12,28.49,3.09,21.22,2.06,14,1.47Z"/><path d="M143.05,167.15c9.2-1,18.85-3.54,25.68-10.31,5.63-5.6,9.05-14.29,9.94-25.48.74-10,1.19-35.93,1.19-76.72.29-16.06,2.81-23.27,7.86-30.78A38.87,38.87,0,0,1,212.06,7.22c0-.59-.3-6.48,0-6.48a.55.55,0,0,1-.45-.15c-13.21-.74-27.45-.74-40.51,2.8-8.9,2.35-17.51,6.92-23.3,14.13-6.23,7.81-8.31,19-9.64,28.57-1.49,11.64-1.64,23.42-1.64,35.2V102.5c0,21.2-2.52,35.78-7.71,43.59-5.34,7.95-14.1,14.87-26.12,20.61l-.89.3v5.89l.89.3c12,5.74,20.78,12.66,26.12,20.61,5.19,7.81,7.71,22.39,7.71,43.59V258.6c0,11.78.15,23.56,1.64,35.2,1.33,9.57,3.41,20.76,9.64,28.57,5.79,7.21,14.4,11.78,23.3,14.13,13.06,3.54,27.3,3.54,40.51,2.8a.55.55,0,0,1,.45-.15c-.3,0,0-5.89,0-6.48A38.87,38.87,0,0,1,187.72,316c-5.05-7.51-7.57-14.72-7.86-30.78,0-40.79-.45-66.71-1.19-76.72-.89-11.19-4.31-19.88-9.94-25.48-6.83-6.77-16.48-9.28-25.68-10.31q-16.7-2-33.39-2.65c-2.47-.13-4.54-.14-6.9-.14,2.36,0,4.43,0,6.9-.15Q126.36,169.14,143.05,167.15Z"/></g></g></svg>